<svg  xmlns="http://www.w3.org/2000/svg" width="56" height="56" viewBox="0 0 512 512" style="enable-background:new 0 0 512 512" xml:space="preserve"><path style="fill:#ffdc64" d="M257.888 503.392c55.49-1.015 98.909-48.623 98.909-104.122v-42.474h45.817c56.296 0 101.812-46.152 100.779-102.684-1.015-55.49-48.623-98.909-104.122-98.909h-42.474v27.49c0 40.486-32.821 73.306-73.306 73.306h-54.98c-40.486 0-73.306 32.821-73.306 73.306v73.307c-.001 56.297 46.151 101.815 102.683 100.78z"/><path style="fill:#fff082" d="M356.797 356.797h-82.47c-10.122 0-18.327 8.205-18.327 18.327v32.072c0 27.835 22.564 50.398 50.398 50.398 27.835 0 50.398-22.564 50.398-50.398v-50.399z"/><circle style="fill:#fff" cx="301.817" cy="411.777" r="18.327"/><path style="fill:#00aaf0" d="M254.113 8.608c-55.49 1.015-98.909 48.623-98.909 104.123v42.473h-45.817c-56.296 0-101.812 46.152-100.779 102.684 1.015 55.49 48.623 98.909 104.122 98.909h42.474v-27.49c0-40.486 32.821-73.306 73.306-73.306h54.98c40.486 0 73.306-32.821 73.306-73.306v-73.307c.001-56.297-46.15-101.813-102.683-100.78z"/><path style="fill:#0096dc" d="M155.204 155.204h82.47c10.122 0 18.327-8.205 18.327-18.327v-32.072c0-27.834-22.564-50.398-50.398-50.398-27.835 0-50.398 22.564-50.398 50.398v50.399z"/><circle style="fill:#fff" cx="210.184" cy="100.224" r="18.327"/><path style="fill:#fff082" d="M430.131 207.213a9.082 9.082 0 0 1-3.929-.895 54.358 54.358 0 0 0-15.705-4.734 9.17 9.17 0 0 1-7.785-10.363c.716-5.011 5.361-8.474 10.363-7.785a72.357 72.357 0 0 1 21.002 6.344c4.572 2.174 6.515 7.642 4.331 12.206a9.145 9.145 0 0 1-8.277 5.227zM448.43 310.05a9.127 9.127 0 0 1-6.417-2.622c-3.615-3.535-3.669-9.342-.125-12.958 10.13-10.335 15.705-24 15.705-38.47 0-11.311-3.41-22.183-9.861-31.428-2.89-4.152-1.88-9.861 2.273-12.761 4.17-2.882 9.87-1.861 12.761 2.272 8.609 12.34 13.154 26.828 13.154 41.915 0 19.293-7.436 37.512-20.948 51.302a9.14 9.14 0 0 1-6.542 2.75z"/><path style="fill:#0096dc" d="M81.871 304.788c1.315 0 2.657.286 3.929.895a54.358 54.358 0 0 0 15.705 4.734 9.17 9.17 0 0 1 7.785 10.363c-.716 5.011-5.361 8.474-10.363 7.785a72.357 72.357 0 0 1-21.002-6.344c-4.572-2.174-6.515-7.642-4.331-12.206a9.145 9.145 0 0 1 8.277-5.227zM63.571 201.952c2.317 0 4.626.868 6.417 2.622 3.615 3.535 3.669 9.342.125 12.958C59.984 227.867 54.408 241.53 54.408 256c0 11.311 3.41 22.183 9.861 31.428 2.89 4.152 1.88 9.861-2.273 12.761-4.17 2.882-9.87 1.861-12.761-2.273-8.608-12.341-13.154-26.828-13.154-41.916 0-19.293 7.436-37.512 20.948-51.302a9.153 9.153 0 0 1 6.542-2.746z"/><path d="M480.671 179.366c-20.74-21.121-48.46-32.753-78.058-32.753h-9.161a8.59 8.59 0 0 0-8.591 8.591 8.59 8.59 0 0 0 8.591 8.591h9.161c24.948 0 48.316 9.806 65.797 27.609 17.476 17.8 26.849 41.354 26.391 66.327-.911 49.889-43.766 90.475-95.531 90.475H256.001a8.591 8.591 0 0 0 0 17.182h92.206v37.226c0 24.948-9.806 48.316-27.609 65.797-17.799 17.476-41.369 26.837-66.327 26.393-49.888-.912-90.475-43.767-90.475-95.532v-69.964c0-35.684 29.032-64.716 64.716-64.716h54.98c45.158 0 81.897-36.739 81.897-81.897v-73.306c0-29.596-11.632-57.318-32.753-78.057C311.519 10.599 283.576-.517 253.958.02c-59.189 1.084-107.342 51.646-107.342 112.712v33.882H109.39c-29.596 0-57.318 11.632-78.057 32.753C10.6 200.484-.521 228.425.021 258.045c1.084 59.189 51.646 107.342 112.712 107.342h5.819a8.591 8.591 0 0 0 0-17.182h-5.819c-51.765 0-94.62-40.587-95.533-90.475-.456-24.972 8.917-48.528 26.393-66.327 17.482-17.803 40.85-27.609 65.797-27.609h146.613a8.59 8.59 0 0 0 8.591-8.591 8.59 8.59 0 0 0-8.591-8.591h-92.206V112.73c0-51.765 40.587-94.62 90.475-95.533 24.979-.448 48.529 8.917 66.327 26.393 17.804 17.482 27.609 40.849 27.609 65.797v73.306c0 35.684-29.032 64.716-64.716 64.716h-54.98c-45.158 0-81.897 36.739-81.897 81.897v69.964c0 61.067 48.153 111.629 107.341 112.711.691.013 1.377.018 2.065.018 28.851 0 55.99-11.081 76.614-31.33 21.121-20.739 32.753-48.459 32.753-78.057v-37.226h33.884c61.065 0 111.627-48.153 112.71-107.341.541-29.619-10.579-57.562-31.311-78.679z"/><path d="M210.184 90.488a8.591 8.591 0 0 0 0-17.182c-14.842 0-26.917 12.075-26.917 26.917s12.075 26.917 26.917 26.917 26.917-12.075 26.917-26.917a8.591 8.591 0 0 0-17.182 0c0 5.369-4.367 9.736-9.736 9.736-5.369 0-9.736-4.367-9.736-9.736.001-5.368 4.369-9.735 9.737-9.735zM301.817 402.041a8.59 8.59 0 0 0 8.591-8.591 8.59 8.59 0 0 0-8.591-8.591c-14.842 0-26.917 12.075-26.917 26.917s12.075 26.917 26.917 26.917 26.917-12.075 26.917-26.917c0-4.744-3.845-8.591-8.591-8.591s-8.591 3.846-8.591 8.591c0 5.369-4.367 9.736-9.736 9.736s-9.736-4.367-9.736-9.736c.001-5.368 4.37-9.735 9.737-9.735z"/></svg>