<svg xmlns="http://www.w3.org/2000/svg" width="130" height="130" xml:space="preserve"><path fill="#5B2907" d="m52.537 64.988-1.053-.606-1.052.606 1.052.608zM51.471 71.144l4.758 2.74v.575l-4.752-2.771z"/><path fill="#6D360C" d="m51.471 71.144.48-.278 4.754 2.744-.476.274z"/><path fill="#6D360C" d="m58.129 82.548-2.9-20.348-1.059.612 1.984 18.593z"/><path fill="#B75513" d="m56.705 74.733-4.758 2.742v.575l4.752-2.77z"/><path fill="#5B2907" d="m56.705 74.733-.48-.276-4.754 2.743.476.275z"/><path fill="#B75513" d="m51.471 71.205-4.758 2.739v.575l4.754-2.77z"/><path fill="#5B2907" d="m51.471 71.205-.481-.279-4.752 2.745.475.273z"/><path fill="#A34F11" d="M51.484 86.387V64.382l1.059.611.918 20.254z"/><path fill="#5B2907" d="m58.129 82.548-2.9-20.348-1.059.612"/><path fill="#A34F11" d="m58.129 82.548-2.9-20.348 1.058.612 3.818 18.593z"/><path fill="#5B2907" d="m56.281 62.806-1.052-.606-1.053.606 1.053.609z"/><g><path fill="#6D360C" d="m44.84 82.548 2.9-20.348-1.058.612-3.819 18.593z"/><path fill="#5B2907" d="m44.84 82.548 2.9-20.348-1.058.612"/><path fill="#A34F11" d="m44.84 82.548 2.9-20.348 1.059.612-1.983 18.593z"/><path fill="#5B2907" d="m46.238 74.733 4.758 2.742v.575l-4.752-2.77z"/><path fill="#6D360C" d="m46.238 74.733.481-.276 4.752 2.743-.475.275z"/><path fill="#6D360C" d="M51.484 86.387V64.382l-1.058.611-.918 20.254z"/><path fill="#5B2907" d="M51.484 86.387V64.382l-1.058.611M48.795 62.806 47.74 62.2l-1.052.606 1.052.609z"/></g><g><path fill="#BA7625" d="M51.475 65.289v2.478l-6.413-3.714V61.58l6.413 3.709"/><path fill="#A3540D" d="M51.484 65.289v2.478l6.412-3.714V61.58l-6.412 3.709"/><path fill="#91480C" d="M51.484 65.289v1.237l6.412-2.473V61.58l-6.412 3.709"/><path fill="#A34D0D" d="M45.062 60.341v2.472l6.413 3.713V64.05z"/><path fill="#934607" d="M51.475 66.526V64.05l-6.413-3.709M45.062 60.341l6.413 3.709M51.475 64.05v2.476"/><path fill="#703207" d="M51.484 64.05v2.476l6.412-3.713v-2.472z"/><path fill="#5E2905" d="m57.896 60.341-6.412 3.709v2.476"/><path fill="#D38129" d="m45.062 60.341 6.413 3.709 2.578-1.486 3.853-2.223-6.422-3.707z"/><path fill="#B76A1D" d="m45.062 60.341 6.413 3.709 2.578-1.486 3.853-2.223"/></g><g><path fill="#474746" d="M56.816 60.162v-1.198h-1.398l-2.891-1.667c-.629-.364-1.66-.364-2.289 0l-2.891 1.667h-1.398v1.189h.002c-.004.242.154.484.471.668l3.816 2.203c.629.365 1.66.365 2.289 0l3.816-2.203c.277-.159.426-.365.459-.575h.014v-.084z"/><path fill="#1E1E1D" d="m50.238 57.297-2.891 1.667h-1.398v1.189h.002c-.004.242.154.484.471.668l3.816 2.203c.629.365 1.66.365 2.289 0v-5.728c-.629-.363-1.66-.363-2.289.001z"/><path fill="#5B5B59" d="m56.344 58.343-3.816-2.203c-.629-.363-1.66-.363-2.289 0l-3.816 2.203c-.631.363-.631.959 0 1.322l3.816 2.204c.629.362 1.66.362 2.289 0l3.816-2.204c.631-.363.631-.959 0-1.322z"/><path fill="#474746" d="M52.527 56.14c-.629-.363-1.66-.363-2.289 0l-3.816 2.203c-.631.363-.631.959 0 1.322l3.816 2.204c.629.362 1.66.362 2.289 0"/><g fill="#3A3A3A"><path d="M48.668 59.26c.098.056.215.081.26.055.045-.025.137-.079.203-.118.068-.037.043-.116-.057-.174-.098-.057-.27-.049-.381.017-.113.063-.125.161-.025.22zM49.492 58.784c.098.057.215.083.26.057s.137-.08.205-.117c.066-.04.041-.117-.057-.176a.432.432 0 0 0-.383.016c-.113.065-.122.164-.025.22zM50.316 58.312c.1.056.217.08.262.056.045-.026.137-.078.203-.118.068-.039.043-.117-.055-.174-.1-.057-.271-.049-.385.015-.111.063-.122.162-.025.221zM51.141 57.837c.1.057.217.082.262.056.045-.025.139-.079.203-.118.068-.038.043-.115-.055-.174a.423.423 0 0 0-.383.016c-.111.063-.123.163-.027.22zM51.967 57.362c.098.058.217.082.262.056l.203-.117c.068-.038.043-.118-.057-.173-.098-.057-.27-.05-.383.015-.111.063-.123.163-.025.219zM49.713 59.878c.098.058.215.084.262.058.045-.026.135-.08.203-.118.066-.038.043-.117-.057-.174-.098-.057-.271-.052-.383.014s-.123.165-.025.22zM50.537 59.405c.1.056.217.08.262.056l.205-.118c.066-.039.041-.117-.057-.174a.426.426 0 0 0-.383.015c-.113.065-.125.165-.027.221zM51.363 58.931c.098.057.215.082.26.055.047-.025.137-.077.205-.116.066-.039.041-.116-.057-.175-.098-.056-.27-.05-.383.016-.111.064-.122.163-.025.22zM52.188 58.458c.1.056.217.081.262.055l.203-.117c.068-.04.043-.117-.057-.175-.098-.056-.27-.049-.381.015-.113.064-.125.163-.027.222zM53.014 57.983c.098.057.215.082.262.056a8.7 8.7 0 0 1 .203-.117c.066-.04.041-.118-.057-.175s-.271-.05-.383.014c-.113.065-.123.166-.025.222zM50.76 60.499c.098.059.215.082.26.057l.205-.119c.066-.037.041-.116-.057-.173a.426.426 0 0 0-.383.015c-.113.064-.125.163-.025.22zM51.584 60.024c.1.057.217.082.262.057s.137-.079.203-.118c.068-.038.043-.117-.057-.173-.098-.057-.271-.051-.383.015-.111.064-.123.163-.025.219zM52.41 59.552c.098.055.215.082.26.055.045-.025.137-.08.205-.117.066-.039.041-.117-.057-.174a.426.426 0 0 0-.383.016c-.113.064-.124.164-.025.22zM53.234 59.078c.1.056.217.081.262.054.043-.023.135-.079.203-.117.066-.037.041-.116-.057-.174-.098-.057-.27-.049-.383.016-.111.064-.122.164-.025.221zM54.059 58.603c.1.057.217.081.262.057l.205-.119c.066-.037.041-.116-.059-.173a.418.418 0 0 0-.381.015c-.113.063-.125.165-.027.22z"/></g></g><g><path fill="#5B2907" d="m39.25 72.682-1.053-.607-1.052.607 1.052.607zM38.184 78.837l4.757 2.741v.573l-4.752-2.77z"/><path fill="#6D360C" d="m38.184 78.837.48-.277 4.754 2.744-.477.274z"/><path fill="#6D360C" d="m44.842 90.241-2.901-20.347-1.058.611 1.984 18.594z"/><path fill="#B75513" d="m43.418 82.427-4.758 2.741v.575l4.752-2.769z"/><path fill="#5B2907" d="m43.418 82.427-.48-.277-4.754 2.744.476.274z"/><path fill="#B75513" d="m38.184 78.896-4.758 2.742v.574l4.754-2.77z"/><path fill="#5B2907" d="m38.184 78.896-.481-.277-4.752 2.745.475.274z"/><path fill="#A34F11" d="M38.197 94.08V72.075l1.061.612.916 20.253z"/><path fill="#5B2907" d="m44.842 90.241-2.901-20.347-1.058.611"/><path fill="#A34F11" d="m44.842 90.241-2.901-20.347 1.061.611 3.818 18.594z"/><path fill="#5B2907" d="m42.994 70.499-1.053-.605-1.052.605 1.052.609z"/><g><path fill="#6D360C" d="m31.553 90.241 2.9-20.347-1.058.611-3.819 18.594z"/><path fill="#5B2907" d="m31.553 90.241 2.9-20.347-1.058.611"/><path fill="#A34F11" d="m31.553 90.241 2.9-20.347 1.061.611-1.985 18.594z"/><path fill="#5B2907" d="m32.951 82.427 4.758 2.741v.575l-4.752-2.769z"/><path fill="#6D360C" d="m32.951 82.427.481-.277 4.752 2.744-.475.274z"/><path fill="#6D360C" d="M38.197 94.08V72.075l-1.058.612-.918 20.253z"/><path fill="#5B2907" d="M38.197 94.08V72.075l-1.058.612M35.508 70.499l-1.055-.605-1.053.605 1.053.609z"/></g><g><path fill="#BA7625" d="M38.189 72.981v2.478l-6.414-3.713v-2.473l6.414 3.708"/><path fill="#A3540D" d="M38.197 72.981v2.478l6.412-3.713v-2.473l-6.412 3.708"/><path fill="#91480C" d="M38.197 72.981v1.239l6.412-2.474v-2.473l-6.412 3.708"/><path fill="#A34D0D" d="M31.775 68.034v2.473l6.414 3.713v-2.478z"/><path fill="#934607" d="M38.189 74.22v-2.478l-6.414-3.708M31.775 68.034l6.414 3.708M38.189 71.742v2.478"/><path fill="#703207" d="M38.197 71.742v2.478l6.412-3.713v-2.473z"/><path fill="#5E2905" d="m44.609 68.034-6.412 3.708v2.478"/><path fill="#D38129" d="m31.775 68.034 6.414 3.708 2.577-1.484 3.853-2.224-6.422-3.706z"/><path fill="#B76A1D" d="m31.775 68.034 6.414 3.708 2.577-1.484 3.853-2.224"/></g><g><path fill="#474746" d="M43.529 67.854v-1.197h-1.398L39.24 64.99c-.629-.364-1.66-.364-2.289 0l-2.891 1.667h-1.398v1.189h.002c-.004.242.154.484.471.668l3.816 2.203c.629.365 1.66.365 2.289 0l3.816-2.203c.277-.16.426-.365.459-.576h.014v-.084z"/><path fill="#1E1E1D" d="m36.951 64.99-2.891 1.667h-1.398v1.189h.002c-.004.242.154.484.471.668l3.816 2.203c.629.365 1.66.365 2.289 0V64.99c-.629-.364-1.66-.364-2.289 0z"/><path fill="#5B5B59" d="m43.057 66.037-3.816-2.204c-.629-.363-1.66-.363-2.289 0l-3.816 2.204c-.629.362-.629.959 0 1.321l3.816 2.203c.629.363 1.66.363 2.289 0l3.816-2.203c.631-.362.631-.959 0-1.321z"/><path fill="#474746" d="M39.24 63.833c-.629-.363-1.66-.363-2.289 0l-3.816 2.204c-.629.362-.629.959 0 1.321l3.816 2.203c.629.363 1.66.363 2.289 0"/><g fill="#3A3A3A"><path d="M35.381 66.953c.098.056.215.081.26.055l.203-.118c.068-.037.043-.117-.057-.174-.098-.057-.27-.049-.381.016-.113.064-.125.163-.025.221zM36.205 66.478c.1.057.215.083.262.057a6.15 6.15 0 0 1 .203-.117c.066-.04.041-.118-.057-.176-.098-.055-.271-.049-.383.016s-.123.163-.025.22zM37.029 66.005c.1.056.217.08.262.056l.203-.118c.068-.039.043-.117-.055-.174-.1-.057-.271-.049-.383.014-.113.065-.124.162-.027.222zM37.855 65.53c.098.057.215.081.26.056l.205-.118c.066-.038.041-.116-.057-.174-.098-.057-.271-.05-.383.016-.11.063-.122.164-.025.22zM38.682 65.056c.098.058.215.082.26.056.045-.025.137-.079.203-.118.068-.037.043-.117-.057-.172-.098-.057-.27-.051-.383.014-.111.063-.123.162-.023.22zM36.426 67.571c.098.058.217.084.262.058s.137-.081.203-.118c.066-.038.043-.117-.057-.174a.418.418 0 0 0-.381.014c-.113.065-.125.166-.027.22zM37.252 67.098c.098.057.215.081.26.057l.205-.117c.066-.04.041-.118-.057-.175a.423.423 0 0 0-.383.015c-.113.064-.125.164-.025.22zM38.076 66.624c.1.057.215.082.262.055l.203-.116c.068-.039.041-.116-.057-.175-.098-.057-.27-.05-.383.016-.111.065-.122.163-.025.22zM38.9 66.15c.1.057.217.081.262.056l.203-.117c.068-.04.043-.117-.055-.176a.436.436 0 0 0-.383.016c-.113.064-.124.164-.027.221zM39.727 65.677c.098.057.215.082.262.055l.203-.116c.066-.04.041-.118-.057-.175s-.271-.05-.383.015c-.113.064-.123.165-.025.221zM37.473 68.192c.098.058.215.082.26.057l.205-.119c.066-.038.041-.117-.057-.174a.429.429 0 0 0-.383.015c-.113.066-.125.165-.025.221zM38.297 67.718c.1.057.217.082.262.057l.203-.118c.068-.037.043-.117-.057-.173-.098-.057-.27-.051-.381.015-.113.063-.125.163-.027.219zM39.123 67.246c.098.054.215.082.26.054.045-.025.137-.08.205-.117.066-.039.041-.117-.057-.174a.426.426 0 0 0-.383.016c-.113.063-.123.163-.025.221zM39.947 66.771c.1.058.217.082.262.055l.203-.117c.068-.038.041-.117-.057-.174s-.27-.05-.383.016c-.111.063-.122.163-.025.22zM40.773 66.296c.098.057.215.081.26.057l.205-.119c.066-.037.041-.116-.057-.173a.423.423 0 0 0-.383.015c-.112.064-.124.165-.025.22z"/></g></g></g><g><path fill="#5B2907" d="m25.965 80.375-1.055-.606-1.053.606 1.053.606zM24.896 86.53l4.76 2.741v.574l-4.754-2.771z"/><path fill="#6D360C" d="m24.896 86.53.483-.277 4.752 2.744-.475.274z"/><path fill="#6D360C" d="m31.557 97.935-2.903-20.349-1.058.612 1.984 18.594z"/><path fill="#B75513" d="m30.131 90.121-4.758 2.74v.576l4.754-2.77z"/><path fill="#5B2907" d="m30.131 90.121-.481-.277-4.754 2.743.477.274z"/><path fill="#B75513" d="m24.896 86.59-4.757 2.741v.574l4.754-2.769z"/><path fill="#5B2907" d="m24.896 86.59-.478-.278-4.754 2.746.475.273z"/><path fill="#A34F11" d="M24.91 101.772V79.769l1.061.611.918 20.254z"/><path fill="#5B2907" d="m31.557 97.935-2.903-20.349-1.058.612"/><path fill="#A34F11" d="m31.557 97.935-2.903-20.349 1.061.612 3.818 18.594z"/><path fill="#5B2907" d="m29.707 78.192-1.053-.606-1.052.606 1.052.61z"/><g><path fill="#6D360C" d="m18.266 97.935 2.9-20.349-1.059.612-3.818 18.594z"/><path fill="#5B2907" d="m18.266 97.935 2.9-20.349-1.059.612"/><path fill="#A34F11" d="m18.266 97.935 2.9-20.349 1.061.612-1.985 18.594z"/><path fill="#5B2907" d="m19.664 90.121 4.758 2.74v.576l-4.752-2.77z"/><path fill="#6D360C" d="m19.664 90.121.481-.277 4.751 2.743-.474.274z"/><path fill="#6D360C" d="M24.91 101.772V79.769l-1.058.611-.918 20.254z"/><path fill="#5B2907" d="M24.91 101.772V79.769l-1.058.611M22.221 78.192l-1.055-.606-1.053.606 1.053.61z"/></g><g><path fill="#BA7625" d="M24.902 80.675v2.477l-6.414-3.714v-2.471l6.414 3.708"/><path fill="#A3540D" d="M24.91 80.675v2.477l6.414-3.714v-2.471l-6.414 3.708"/><path fill="#91480C" d="M24.91 80.675v1.238l6.414-2.475v-2.471l-6.414 3.708"/><path fill="#A34D0D" d="M18.488 75.728V78.2l6.414 3.713v-2.477z"/><path fill="#934607" d="M24.902 81.913v-2.477l-6.414-3.708M18.488 75.728l6.414 3.708M24.902 79.436v2.477"/><path fill="#703207" d="M24.91 79.436v2.477l6.414-3.713v-2.472z"/><path fill="#5E2905" d="m31.324 75.728-6.414 3.708v2.477"/><path fill="#D38129" d="m18.488 75.728 6.414 3.708 2.577-1.485 3.853-2.223-6.422-3.707z"/><path fill="#B76A1D" d="m18.488 75.728 6.414 3.708 2.577-1.485 3.853-2.223"/></g><g><path fill="#474746" d="M30.242 75.548v-1.197h-1.398l-2.891-1.667c-.629-.364-1.66-.364-2.289 0l-2.891 1.667h-1.396v1.189c-.004.242.154.484.471.668l3.816 2.204c.629.363 1.66.363 2.289 0l3.816-2.204c.277-.16.426-.365.459-.576h.014v-.084z"/><path fill="#1E1E1D" d="m23.664 72.684-2.891 1.667h-1.396v1.189c-.004.242.154.484.471.668l3.816 2.204c.629.363 1.66.363 2.289 0v-5.729c-.629-.364-1.66-.364-2.289.001z"/><path fill="#5B5B59" d="m29.77 73.729-3.816-2.203c-.629-.363-1.66-.363-2.289 0l-3.816 2.203c-.629.363-.629.959 0 1.322l3.816 2.203c.629.364 1.66.364 2.289 0l3.816-2.203c.63-.363.63-.958 0-1.322z"/><path fill="#474746" d="M25.953 71.526c-.629-.363-1.66-.363-2.289 0l-3.816 2.203c-.629.363-.629.959 0 1.322l3.816 2.203c.629.364 1.66.364 2.289 0"/><g fill="#3A3A3A"><path d="M22.094 74.646c.098.058.215.082.26.056l.205-.118c.066-.037.041-.117-.059-.174-.098-.057-.27-.049-.381.016s-.125.162-.025.22zM22.918 74.171c.1.057.215.083.262.057l.203-.117c.066-.041.041-.118-.057-.176-.098-.056-.27-.049-.383.016-.111.064-.123.163-.025.22zM23.742 73.698c.1.055.217.08.262.055l.205-.117c.066-.039.041-.117-.057-.175-.1-.056-.271-.048-.383.015-.113.064-.124.163-.027.222zM24.568 73.224c.098.057.215.081.26.056l.205-.117c.066-.04.041-.117-.057-.175-.098-.057-.271-.051-.383.016-.111.061-.122.163-.025.22zM25.395 72.749c.098.057.215.082.26.056l.203-.118c.068-.037.043-.117-.057-.173a.425.425 0 0 0-.381.015c-.113.064-.125.162-.025.22zM23.141 75.265c.098.058.215.083.26.058.045-.026.137-.081.205-.117.064-.04.041-.118-.059-.175a.418.418 0 0 0-.381.014c-.113.064-.125.165-.025.22zM23.965 74.791c.098.057.215.081.26.057l.205-.118c.066-.039.041-.117-.057-.174-.1-.057-.271-.051-.383.015s-.125.163-.025.22zM24.789 74.317c.1.057.215.082.262.055l.203-.117c.068-.038.041-.115-.055-.174-.1-.057-.271-.05-.385.016-.111.065-.123.163-.025.22zM25.615 73.844c.098.057.215.081.26.055.045-.025.137-.079.205-.116.066-.04.041-.117-.057-.176a.436.436 0 0 0-.383.016c-.113.064-.122.164-.025.221zM26.439 73.371c.098.056.217.082.262.054l.203-.117c.066-.039.041-.117-.057-.174-.098-.056-.27-.05-.383.014-.112.065-.122.164-.025.223zM24.186 75.886c.098.058.215.082.26.056l.205-.118c.068-.038.041-.117-.057-.174-.1-.057-.27-.05-.383.015s-.123.165-.025.221zM25.01 75.412c.1.056.217.081.262.056l.203-.118c.068-.039.043-.118-.055-.173a.426.426 0 0 0-.383.015c-.113.063-.125.162-.027.22zM25.836 74.938c.098.055.215.082.26.055l.205-.117c.066-.039.041-.117-.057-.173-.098-.058-.27-.051-.383.015-.113.063-.123.164-.025.22zM26.66 74.464c.1.057.217.082.262.055.045-.024.137-.079.203-.117.068-.038.041-.117-.057-.174s-.27-.05-.383.016c-.111.063-.123.163-.025.22zM27.486 73.989c.098.057.215.08.26.057l.205-.119c.066-.037.041-.117-.057-.174a.432.432 0 0 0-.383.015c-.113.065-.124.167-.025.221z"/></g></g></g><g><path fill="#E26B0A" d="M58.113 97.345v19.297l38.739-22.366V74.981z"/><path fill="#FFA300" d="M38.742 86.163v19.296l19.371 11.183V97.345z"/><path fill="#6B878E" d="M58.113 93.762v19.296l38.739-22.366V71.396z"/><path fill="#527075" d="M96.852 71.396 58.113 93.762v19.296"/><path fill="#A7D1D3" d="M38.742 82.58v19.296l19.371 11.182V93.762z"/><path fill="#91BBBF" d="M58.113 113.058V93.762L38.742 82.58"/><path fill="#295150" d="M77.482 60.214 38.742 82.58l19.371 11.182 38.739-22.366z"/><path fill="#1C3836" d="M77.268 61.292 40.619 82.46l17.707 10.224 36.645-21.17z"/><path fill="#132B2A" d="m41.479 82.956 16.847 9.728 35.787-20.677-16.845-9.723z"/><path fill="#0C2121" d="M87.947 75.569v-4.075h5.094v1.131z"/><path fill="#0C2121" d="m41.479 82.956 16.847 9.728 35.787-20.677"/><path fill="#BCF7F7" d="M58.113 113.264a.211.211 0 0 1-.104-.028l-19.371-11.182a.206.206 0 0 1-.074-.281.204.204 0 0 1 .279-.074l19.371 11.182a.205.205 0 0 1 .074.282.2.2 0 0 1-.175.101zM58.113 110.965a.22.22 0 0 1-.104-.027l-19.37-11.182a.206.206 0 0 1 .205-.356l19.371 11.182a.205.205 0 0 1 .074.281.2.2 0 0 1-.176.102zM58.113 108.667a.233.233 0 0 1-.104-.027l-19.37-11.182a.206.206 0 0 1 .205-.357l19.371 11.183a.203.203 0 0 1 .074.28.2.2 0 0 1-.176.103zM58.113 106.369a.22.22 0 0 1-.104-.027l-19.37-11.183a.204.204 0 0 1-.074-.279.204.204 0 0 1 .279-.076l19.371 11.182a.204.204 0 0 1 .074.281.202.202 0 0 1-.176.102zM58.113 104.071a.22.22 0 0 1-.104-.027l-19.37-11.183a.205.205 0 0 1 .205-.355l19.371 11.183a.204.204 0 0 1-.102.382zM58.113 101.772a.22.22 0 0 1-.104-.026l-19.37-11.183a.206.206 0 0 1-.074-.281.204.204 0 0 1 .279-.074l19.371 11.182a.204.204 0 0 1-.102.382zM58.113 99.475a.232.232 0 0 1-.104-.026l-19.37-11.182a.206.206 0 0 1 .205-.357l19.371 11.182a.204.204 0 0 1 .074.281.202.202 0 0 1-.176.102zM58.113 97.177a.21.21 0 0 1-.104-.027l-19.37-11.182a.205.205 0 0 1 .205-.355l19.371 11.182a.204.204 0 0 1 .074.281.203.203 0 0 1-.176.101z"/><g><path fill="#E26B0A" d="M67.824 54.263 29.943 76.136l37.881 21.869 37.881-21.869z"/><path fill="#CC5B06" d="m29.943 76.136 37.881 21.869 37.881-21.869"/><path fill="#FF7F00" d="M29.943 76.136v1.363l37.881 21.874v-1.368z"/><path fill="#FFA300" d="M105.705 76.136v1.363L67.824 99.373v-1.368z"/></g><path fill="#9B4302" d="M76.65 60.101 40.002 81.267l17.707 10.224 36.643-21.172z"/><path fill="#843804" d="m57.709 91.491 36.643-21.172L76.65 60.101"/><path fill="#843804" d="m76.773 80.476 17.579-10.157L76.773 60.17z"/><path fill="#66320E" d="M76.773 64.259v16.217l14.039-8.111z"/><path fill="#AD1818" d="M76.773 60.17v20.306"/><path fill="#440808" d="m55.189 90.035 2.52 1.456 21.457-12.397-2.516-1.452z"/><g><path fill="#A7D1D3" d="m70.434 89.392-2.612 1.518v7.075l2.612-1.538z"/><path fill="#91BBBF" d="m70.434 89.392-2.612 1.518v7.075"/><path fill="#6B878E" d="m65.217 89.392 2.605 1.518v7.075l-2.605-1.538z"/><path fill="#527075" d="m65.217 89.392 2.605 1.518v7.075"/><path fill="#719499" d="m67.822 87.866-2.605 1.526 2.605 1.518 2.612-1.518z"/><path fill="#5C7E7F" d="m65.217 89.392 2.605 1.518 2.612-1.518"/><g><path fill="#527075" d="m67.805 90.5 1.939-1.131-1.939-1.13-1.955 1.13z"/><path fill="#425D60" d="m67.805 88.239-1.955 1.13 1.955 1.131"/><path fill="#8CADB5" d="m68.619 66.47-.814.496v22.812l.814-.472z"/><path fill="#7C949B" d="m66.99 66.47.815.496v22.812l-.815-.472zM68.619 66.47v1.562l-.814.45v-1.516z"/><path fill="#547277" d="M67.805 67.578v.904l-.815-.45V66.47l.815.496z"/><g><path fill="#444738" d="M70.264 64.698v-.941l-2.442 1.416"/><path fill="#8CADB5" d="M70.264 63.757v1.873l-2.442 1.402v-1.859z"/><path fill="#779AA0" d="M67.822 67.032v-1.859l2.442-1.416"/><path fill="#7C949B" d="M67.822 65.173v1.859l-2.418-1.402v-1.873z"/><path fill="#6B878E" d="M65.404 64.698v-.941l2.418 1.416v1.859"/><path fill="#9EC6CC" d="m70.264 63.757-2.442 1.416-.955-.58-1.463-.836 2.418-1.403z"/></g></g></g><g><path fill="#A7D1D3" d="m35.162 69.046-2.611 1.52v7.076l2.611-1.54z"/><path fill="#91BBBF" d="m35.162 69.046-2.611 1.52v7.076"/><path fill="#6B878E" d="m29.943 69.046 2.608 1.52v7.076l-2.608-1.54z"/><path fill="#527075" d="m29.943 69.046 2.608 1.52v7.076"/><path fill="#719499" d="m32.551 67.522-2.608 1.524 2.608 1.52 2.611-1.52z"/><path fill="#5C7E7F" d="m29.943 69.046 2.608 1.52 2.611-1.52"/><g><path fill="#527075" d="m32.533 70.155 1.938-1.131-1.938-1.13-1.957 1.13z"/><path fill="#425D60" d="m32.533 67.894-1.957 1.13 1.957 1.131"/><path fill="#8CADB5" d="m33.348 46.124-.815.497v22.813l.815-.474z"/><path fill="#7C949B" d="m31.719 46.124.814.497v22.813l-.814-.474zM33.348 46.124v1.563l-.815.45v-1.516z"/><path fill="#547277" d="M32.533 47.233v.904l-.814-.45v-1.563l.814.497z"/><g><path fill="#444738" d="M34.99 44.353v-.941l-2.439 1.413"/><path fill="#8CADB5" d="M34.99 43.412v1.873l-2.439 1.402v-1.862z"/><path fill="#779AA0" d="M32.551 46.687v-1.862l2.439-1.413"/><path fill="#7C949B" d="M32.551 44.825v1.862l-2.42-1.402v-1.873z"/><path fill="#6B878E" d="M30.131 44.353v-.941l2.42 1.413v1.862"/><path fill="#9EC6CC" d="m34.99 43.412-2.439 1.413-.957-.576-1.463-.837 2.42-1.401z"/></g></g></g><g><path fill="#A7D1D3" d="m105.705 69.049-2.611 1.518v7.075l2.611-1.538z"/><path fill="#91BBBF" d="m105.705 69.049-2.611 1.518v7.075"/><path fill="#6B878E" d="m100.486 69.049 2.608 1.518v7.075l-2.608-1.538z"/><path fill="#527075" d="m100.486 69.049 2.608 1.518v7.075"/><path fill="#719499" d="m103.094 67.524-2.608 1.525 2.608 1.518 2.611-1.518z"/><path fill="#5C7E7F" d="m100.486 69.049 2.608 1.518 2.611-1.518"/><g><path fill="#527075" d="m103.076 70.156 1.938-1.13-1.938-1.13-1.957 1.13z"/><path fill="#425D60" d="m103.076 67.896-1.957 1.13 1.957 1.13"/><path fill="#8CADB5" d="m103.891 46.126-.815.496v22.813l.815-.473z"/><path fill="#7C949B" d="m102.262 46.126.814.496v22.813l-.814-.473zM103.891 46.126v1.562l-.815.451v-1.517z"/><path fill="#547277" d="M103.076 47.235v.904l-.814-.451v-1.562l.814.496z"/><g><path fill="#444738" d="M105.533 44.354v-.941l-2.439 1.417"/><path fill="#8CADB5" d="M105.533 43.413v1.876l-2.439 1.399V44.83z"/><path fill="#779AA0" d="M103.094 46.688V44.83l2.439-1.417"/><path fill="#7C949B" d="M103.094 44.83v1.858l-2.42-1.399v-1.876z"/><path fill="#6B878E" d="M100.674 44.354v-.941l2.42 1.417v1.858"/><path fill="#9EC6CC" d="m105.533 43.413-2.439 1.417-.957-.581-1.463-.836 2.42-1.4z"/></g></g></g><g><path fill="#FF7F00" d="M100.307 22.289c-42.201-24.363-24.402-23.463-65.012 0-17.887 10.327-17.887 27.212 0 37.539 17.871 10.326 47.127 10.326 65.012 0 17.871-10.327 17.871-27.212 0-37.539z"/><path fill="#E26B0A" d="M100.307 59.828c17.871-10.327 17.871-27.212 0-37.539-42.201-24.363-24.402-23.463-65.012 0"/><path fill="#FFA300" d="M93.104 17.438c-32.852-18.967-18.996-18.268-50.609 0-13.924 8.039-13.924 21.184 0 29.222 13.912 8.039 36.686 8.039 50.609 0 13.914-8.038 13.914-21.182 0-29.222z"/><path fill="#EF980C" d="M93.104 46.66c13.914-8.038 13.914-21.183 0-29.222-32.852-18.967-18.996-18.268-50.609 0"/><path fill="#FFB600" d="M49.756 33.081c9.918 5.732 26.158 5.732 36.086 0 9.92-5.73 9.92-15.104 0-20.834-23.424-13.525-13.545-13.025-36.086 0-9.928 5.731-9.928 15.104 0 20.834z"/><path fill="#F4AA06" d="M85.842 33.081c9.92-5.73 9.92-15.104 0-20.834-23.424-13.525-13.545-13.025-36.086 0"/><path fill="#FFC200" d="M79.885 7.67c-15.691-9.06-9.074-8.726-24.174 0-6.652 3.839-6.652 10.119 0 13.96 6.645 3.839 17.521 3.839 24.174 0 6.646-3.841 6.646-10.121 0-13.96z"/><path fill="#EFAF0F" d="M79.885 21.63c6.646-3.841 6.646-10.121 0-13.96-15.691-9.06-9.074-8.726-24.174 0"/></g></g><g><path fill="#5B2907" d="m105.762 92.216-1.053-.608-1.053.608 1.053.606zM104.695 98.371l4.76 2.74v.575l-4.754-2.771z"/><path fill="#6D360C" d="m104.695 98.371.481-.278 4.754 2.744-.475.274z"/><path fill="#6D360C" d="m111.354 109.774-2.901-20.347-1.058.612 1.984 18.593z"/><path fill="#B75513" d="m109.93 101.96-4.758 2.743v.573l4.752-2.769z"/><path fill="#5B2907" d="m109.93 101.96-.481-.275-4.754 2.742.477.276z"/><path fill="#B75513" d="m104.695 98.431-4.757 2.74v.575l4.753-2.77z"/><path fill="#5B2907" d="m104.695 98.431-.48-.278-4.752 2.744.475.274z"/><path fill="#A34F11" d="M104.709 113.613V91.608l1.061.612.916 20.254z"/><path fill="#5B2907" d="m111.354 109.774-2.901-20.347-1.058.612"/><path fill="#A34F11" d="m111.354 109.774-2.901-20.347 1.061.612 3.818 18.593z"/><path fill="#5B2907" d="m109.506 90.032-1.053-.605-1.053.605 1.053.61z"/><g><path fill="#6D360C" d="m98.064 109.774 2.901-20.347-1.059.612-3.818 18.593z"/><path fill="#5B2907" d="m98.064 109.774 2.901-20.347-1.059.612"/><path fill="#A34F11" d="m98.064 109.774 2.901-20.347 1.06.612-1.984 18.593z"/><path fill="#5B2907" d="m99.463 101.96 4.758 2.743v.573l-4.752-2.769z"/><path fill="#6D360C" d="m99.463 101.96.48-.275 4.752 2.742-.474.276z"/><path fill="#6D360C" d="M104.709 113.613V91.608l-1.059.612-.918 20.254z"/><path fill="#5B2907" d="M104.709 113.613V91.608l-1.059.612M102.02 90.032l-1.055-.605-1.053.605 1.053.61z"/></g><g><path fill="#BA7625" d="M104.701 92.515v2.478l-6.414-3.714v-2.471l6.414 3.707"/><path fill="#A3540D" d="M104.709 92.515v2.478l6.414-3.714v-2.471l-6.414 3.707"/><path fill="#91480C" d="M104.709 92.515v1.239l6.414-2.475v-2.471l-6.414 3.707"/><path fill="#A34D0D" d="M98.287 87.567v2.473l6.414 3.714v-2.478z"/><path fill="#934607" d="M104.701 93.754v-2.478l-6.414-3.709M98.287 87.567l6.414 3.709M104.701 91.276v2.478"/><path fill="#703207" d="M104.709 91.276v2.478l6.414-3.714v-2.473z"/><path fill="#5E2905" d="m111.123 87.567-6.414 3.709v2.478"/><path fill="#D38129" d="m98.287 87.567 6.414 3.709 2.576-1.484 3.854-2.225-6.422-3.707z"/><path fill="#B76A1D" d="m98.287 87.567 6.414 3.709 2.576-1.484 3.854-2.225"/></g><g><path fill="#474746" d="M110.041 87.388v-1.196h-1.398l-2.891-1.667c-.629-.365-1.66-.365-2.289 0l-2.891 1.667h-1.396v1.189c-.004.242.154.484.471.668l3.816 2.202c.629.365 1.66.365 2.289 0l3.816-2.202c.277-.161.426-.366.459-.576h.014v-.085z"/><path fill="#1E1E1D" d="m103.463 84.524-2.891 1.667h-1.396v1.189c-.004.242.154.484.471.668l3.816 2.202c.629.365 1.66.365 2.289 0v-5.727c-.629-.364-1.66-.364-2.289.001z"/><path fill="#5B5B59" d="m109.568 85.569-3.816-2.203c-.629-.363-1.66-.363-2.289 0l-3.816 2.203c-.629.363-.629.959 0 1.322l3.816 2.203c.629.363 1.66.363 2.289 0l3.816-2.203c.631-.363.631-.958 0-1.322z"/><path fill="#474746" d="M105.752 83.366c-.629-.363-1.66-.363-2.289 0l-3.816 2.203c-.629.363-.629.959 0 1.322l3.816 2.203c.629.363 1.66.363 2.289 0"/><g fill="#3A3A3A"><path d="M101.893 86.486c.098.056.215.081.26.056l.205-.118c.066-.038.041-.118-.059-.175-.098-.057-.27-.049-.381.016-.113.065-.125.164-.025.221zM102.717 86.011c.1.057.215.084.262.057a8.7 8.7 0 0 1 .203-.117c.066-.04.041-.117-.057-.176-.098-.055-.271-.048-.383.016-.111.064-.123.164-.025.22zM103.541 85.539c.1.055.217.08.262.055l.203-.118c.068-.039.043-.117-.055-.174a.432.432 0 0 0-.383.015c-.113.064-.125.162-.027.222zM104.367 85.063c.098.058.215.082.26.058.045-.027.139-.08.205-.12.066-.038.041-.115-.057-.173s-.271-.051-.383.015c-.111.063-.122.164-.025.22zM105.193 84.589c.098.058.215.082.26.057l.203-.118c.068-.038.043-.118-.057-.173-.098-.057-.27-.051-.381.015-.113.063-.124.162-.025.219zM102.938 87.104c.098.059.217.084.262.059l.203-.119c.066-.038.043-.117-.057-.173-.098-.058-.27-.052-.381.013-.113.066-.125.166-.027.22zM103.764 86.632c.098.057.215.081.26.057l.205-.119c.066-.039.041-.116-.057-.173a.414.414 0 0 0-.383.016c-.113.063-.125.162-.025.219zM104.588 86.157c.1.057.215.082.262.055.045-.025.137-.077.203-.116.068-.038.041-.116-.057-.175-.098-.056-.27-.049-.383.016-.111.066-.123.164-.025.22zM105.414 85.685c.098.057.215.081.26.055l.203-.117c.068-.039.043-.117-.055-.175-.1-.056-.271-.048-.383.015-.113.063-.123.163-.025.222zM106.238 85.21c.098.057.215.082.262.055l.203-.116c.066-.04.041-.117-.057-.175-.098-.057-.271-.049-.383.014-.113.066-.122.165-.025.222zM103.984 87.726c.098.059.215.082.26.057.045-.027.139-.079.205-.119.068-.037.041-.116-.057-.173a.426.426 0 0 0-.383.015c-.113.063-.124.163-.025.22zM104.809 87.252c.1.056.217.082.262.056l.203-.117c.068-.039.043-.118-.055-.174a.42.42 0 0 0-.383.016c-.113.062-.125.161-.027.219zM105.635 86.778c.098.056.215.082.26.056s.137-.081.205-.118c.066-.039.041-.117-.057-.174a.429.429 0 0 0-.383.016c-.113.064-.123.164-.025.22zM106.459 86.305c.1.056.217.081.262.055.045-.024.137-.079.203-.118.068-.036.041-.116-.057-.174-.098-.057-.27-.049-.383.016-.111.063-.123.164-.025.221zM107.285 85.83c.098.056.215.08.26.056l.205-.119c.066-.037.041-.116-.057-.173a.426.426 0 0 0-.383.015c-.113.064-.124.165-.025.221z"/></g></g></g><g><path fill="#5B2907" d="m92.477 99.909-1.055-.607-1.053.607 1.053.607zM91.408 106.063l4.76 2.742v.574l-4.754-2.771z"/><path fill="#6D360C" d="m91.408 106.063.483-.276 4.752 2.743-.475.275z"/><path fill="#6D360C" d="m98.068 117.468-2.902-20.347-1.059.61 1.985 18.594z"/><path fill="#B75513" d="m96.643 109.653-4.758 2.743v.574l4.754-2.77z"/><path fill="#5B2907" d="m96.643 109.653-.481-.276-4.754 2.744.477.275z"/><path fill="#B75513" d="m91.408 106.124-4.758 2.74v.574l4.754-2.769z"/><path fill="#5B2907" d="m91.408 106.124-.478-.277-4.754 2.744.474.273z"/><path fill="#A34F11" d="M91.422 121.307V99.302l1.06.611.918 20.254z"/><path fill="#5B2907" d="m98.068 117.468-2.902-20.347-1.059.61"/><path fill="#A34F11" d="m98.068 117.468-2.902-20.347 1.061.61 3.818 18.594z"/><path fill="#5B2907" d="m96.219 97.726-1.053-.605-1.053.605 1.053.609z"/><g><path fill="#6D360C" d="m84.777 117.468 2.901-20.347-1.059.61-3.818 18.594z"/><path fill="#5B2907" d="m84.777 117.468 2.901-20.347-1.059.61"/><path fill="#A34F11" d="m84.777 117.468 2.901-20.347 1.06.61-1.984 18.594z"/><path fill="#5B2907" d="m86.176 109.653 4.758 2.743v.574l-4.752-2.77z"/><path fill="#6D360C" d="m86.176 109.653.48-.276 4.752 2.744-.474.275z"/><path fill="#6D360C" d="M91.422 121.307V99.302l-1.059.611-.918 20.254z"/><path fill="#5B2907" d="M91.422 121.307V99.302l-1.059.611M88.732 97.726l-1.054-.605-1.053.605 1.053.609z"/></g><g><path fill="#BA7625" d="M91.414 100.208v2.479L85 98.973v-2.472l6.414 3.707"/><path fill="#A3540D" d="M91.422 100.208v2.479l6.414-3.714v-2.472l-6.414 3.707"/><path fill="#91480C" d="M91.422 100.208v1.239l6.414-2.474v-2.472l-6.414 3.707"/><path fill="#A34D0D" d="M85 95.261v2.472l6.414 3.714V98.97z"/><path fill="#934607" d="M91.414 101.447V98.97L85 95.261M85 95.261l6.414 3.709M91.414 98.97v2.477"/><path fill="#703207" d="M91.422 98.97v2.477l6.414-3.714v-2.472z"/><path fill="#5E2905" d="m97.836 95.261-6.414 3.709v2.477"/><path fill="#D38129" d="m85 95.261 6.414 3.709 2.576-1.485 3.854-2.224-6.422-3.707z"/><path fill="#B76A1D" d="m85 95.261 6.414 3.709 2.576-1.485 3.854-2.224"/></g><g><path fill="#474746" d="M96.754 95.081v-1.196h-1.396l-2.893-1.667c-.629-.365-1.66-.365-2.289 0l-2.891 1.667h-1.396v1.189c-.004.241.154.483.471.668l3.816 2.202c.629.365 1.66.365 2.289 0l3.816-2.202c.279-.161.426-.366.459-.576h.014v-.085z"/><path fill="#1E1E1D" d="m90.176 92.218-2.891 1.667h-1.396v1.189c-.004.241.154.483.471.668l3.816 2.202c.629.365 1.66.365 2.289 0v-5.727c-.629-.364-1.66-.364-2.289.001z"/><path fill="#5B5B59" d="m96.281 93.263-3.816-2.203c-.629-.363-1.66-.363-2.289 0l-3.816 2.203c-.629.363-.629.959 0 1.322l3.816 2.204c.629.362 1.66.362 2.289 0l3.816-2.204c.631-.363.631-.959 0-1.322z"/><path fill="#474746" d="M92.465 91.06c-.629-.363-1.66-.363-2.289 0l-3.816 2.203c-.629.363-.629.959 0 1.322l3.816 2.204c.629.362 1.66.362 2.289 0"/><g fill="#3A3A3A"><path d="M88.605 94.18c.098.056.215.081.26.055l.205-.117c.066-.037.041-.118-.059-.175-.098-.057-.27-.049-.381.016s-.124.163-.025.221zM89.43 93.705c.1.056.215.084.262.056l.203-.117c.066-.04.041-.117-.057-.176-.098-.055-.27-.048-.383.016-.111.065-.123.163-.025.221zM90.254 93.231c.1.056.217.08.262.056l.205-.118c.066-.039.041-.117-.057-.173-.1-.058-.271-.05-.383.014-.113.064-.125.163-.027.221zM91.08 92.757c.098.057.215.082.26.056l.205-.118c.066-.038.041-.114-.057-.174-.098-.057-.27-.05-.383.017-.111.062-.123.162-.025.219zM91.906 92.282c.098.058.215.082.26.057l.203-.118c.068-.038.043-.118-.057-.173-.098-.057-.27-.051-.381.015-.113.063-.124.163-.025.219zM89.652 94.798c.098.059.215.084.26.059.045-.026.137-.081.205-.119.064-.038.041-.116-.059-.174-.098-.057-.27-.051-.381.015-.113.064-.124.164-.025.219zM90.477 94.325c.098.057.215.08.26.057l.205-.119c.066-.039.041-.117-.057-.174s-.271-.05-.383.015c-.111.065-.125.165-.025.221zM91.301 93.851c.1.057.215.082.262.055.045-.025.137-.077.203-.116.068-.038.043-.116-.055-.175a.43.43 0 0 0-.385.016c-.111.064-.123.163-.025.22zM92.127 93.378c.098.057.215.08.26.055l.205-.117c.066-.039.041-.117-.057-.175a.432.432 0 0 0-.383.015c-.113.064-.123.163-.025.222zM92.951 92.903c.098.057.217.082.262.055.045-.025.137-.077.203-.116.066-.04.041-.118-.057-.175s-.27-.05-.383.014c-.113.066-.122.166-.025.222zM90.697 95.419c.098.059.215.082.262.057.045-.027.137-.079.203-.119.068-.037.043-.116-.057-.173s-.27-.05-.383.015-.122.163-.025.22zM91.521 94.944c.1.057.217.083.262.057l.203-.117c.068-.039.043-.118-.055-.174a.42.42 0 0 0-.383.016c-.112.063-.124.162-.027.218zM92.348 94.472c.098.055.215.082.26.055l.205-.117c.066-.038.041-.117-.057-.174-.098-.056-.27-.049-.383.016s-.123.163-.025.22zM93.172 93.997c.1.057.217.083.262.055.045-.023.137-.078.203-.117.068-.037.041-.116-.057-.174-.098-.056-.27-.049-.383.016-.111.064-.123.163-.025.22zM93.998 93.522c.098.058.215.081.26.058a8.79 8.79 0 0 1 .205-.12c.066-.037.041-.116-.057-.173a.423.423 0 0 0-.383.015c-.113.064-.125.166-.025.22z"/></g></g></g><g><path fill="#5B2907" d="m79.189 107.603-1.054-.607-1.053.607 1.053.606zM78.123 113.757l4.758 2.74v.575l-4.754-2.771z"/><path fill="#6D360C" d="m78.123 113.757.481-.278 4.751 2.745-.474.273z"/><path fill="#6D360C" d="m84.781 125.162-2.902-20.349-1.059.612 1.985 18.594z"/><path fill="#B75513" d="m83.355 117.347-4.757 2.741v.575l4.754-2.769z"/><path fill="#5B2907" d="m83.355 117.347-.48-.277-4.752 2.743.475.275z"/><path fill="#B75513" d="m78.123 113.817-4.76 2.741v.574l4.754-2.77z"/><path fill="#5B2907" d="m78.123 113.817-.48-.278-4.754 2.745.474.274z"/><path fill="#A34F11" d="M78.135 129v-22.004l1.06.61.918 20.254z"/><path fill="#5B2907" d="m84.781 125.162-2.902-20.349-1.059.612"/><path fill="#A34F11" d="m84.781 125.162-2.902-20.349 1.06.612 3.819 18.594z"/><path fill="#5B2907" d="m82.932 105.419-1.053-.606-1.051.606 1.051.609z"/><g><path fill="#6D360C" d="m71.49 125.162 2.903-20.349-1.061.612-3.818 18.594z"/><path fill="#5B2907" d="m71.49 125.162 2.903-20.349-1.061.612"/><path fill="#A34F11" d="m71.49 125.162 2.903-20.349 1.058.612-1.984 18.594z"/><path fill="#5B2907" d="m72.889 117.347 4.757 2.741v.575l-4.751-2.769z"/><path fill="#6D360C" d="m72.889 117.347.48-.277 4.754 2.743-.477.275z"/><path fill="#6D360C" d="M78.135 129v-22.004l-1.059.61-.918 20.254z"/><path fill="#5B2907" d="M78.135 129v-22.004l-1.059.61M75.445 105.419l-1.052-.606-1.055.606 1.055.609z"/></g><g><path fill="#BA7625" d="M78.127 107.901v2.479l-6.414-3.714v-2.473l6.414 3.708"/><path fill="#A3540D" d="M78.137 107.901v2.479l6.412-3.714v-2.473l-6.412 3.708"/><path fill="#91480C" d="M78.137 107.901v1.239l6.412-2.474v-2.473l-6.412 3.708"/><path fill="#A34D0D" d="M71.713 102.955v2.472l6.414 3.713v-2.477z"/><path fill="#934607" d="M78.127 109.14v-2.477l-6.414-3.708M71.713 102.955l6.414 3.708M78.127 106.663v2.477"/><path fill="#703207" d="M78.137 106.663v2.477l6.412-3.713v-2.472z"/><path fill="#5E2905" d="m84.549 102.955-6.412 3.708v2.477"/><path fill="#D38129" d="m71.713 102.955 6.414 3.708 2.576-1.485 3.854-2.223-6.42-3.708z"/><path fill="#B76A1D" d="m71.713 102.955 6.414 3.708 2.576-1.485 3.854-2.223"/></g><g><path fill="#474746" d="M83.467 102.774v-1.196H82.07l-2.893-1.668c-.629-.364-1.66-.364-2.289 0L74 101.578h-1.398v1.188c-.002.242.154.484.471.669l3.816 2.202c.629.365 1.66.365 2.289 0l3.816-2.202c.279-.161.426-.366.459-.576h.014v-.085z"/><path fill="#1E1E1D" d="M76.889 99.91 74 101.578h-1.398v1.188c-.002.242.154.484.471.669l3.816 2.202c.629.365 1.66.365 2.289 0V99.91c-.629-.364-1.66-.364-2.289 0z"/><path fill="#5B5B59" d="m82.994 100.956-3.816-2.203c-.629-.363-1.66-.363-2.289 0l-3.816 2.203c-.629.363-.629.959 0 1.322l3.816 2.203c.629.363 1.66.363 2.289 0l3.816-2.203c.631-.363.631-.959 0-1.322z"/><path fill="#474746" d="M79.178 98.753c-.629-.363-1.66-.363-2.289 0l-3.816 2.203c-.629.363-.629.959 0 1.322l3.816 2.203c.629.363 1.66.363 2.289 0"/><g fill="#3A3A3A"><path d="M75.318 101.873c.098.056.215.082.26.055l.205-.118c.066-.037.041-.117-.057-.174-.098-.056-.271-.049-.383.016s-.122.162-.025.221zM76.143 101.397c.1.058.217.083.262.058a9.58 9.58 0 0 1 .203-.118c.066-.04.043-.117-.057-.175-.098-.056-.27-.05-.383.015-.111.065-.123.164-.025.22zM76.967 100.925c.1.056.217.08.262.056l.205-.118c.066-.039.041-.116-.057-.174-.1-.057-.271-.049-.383.015-.111.064-.125.162-.027.221zM77.793 100.45c.098.057.215.082.262.056.045-.025.137-.079.203-.118.066-.038.043-.115-.057-.174-.098-.057-.27-.05-.383.016-.111.063-.123.164-.025.22zM78.619 99.976c.098.058.215.082.26.056l.203-.117c.068-.038.043-.118-.057-.173-.098-.057-.27-.051-.381.015-.113.062-.124.162-.025.219zM76.365 102.491c.098.058.215.084.26.058l.205-.118c.066-.038.041-.117-.059-.174a.418.418 0 0 0-.381.014c-.113.065-.124.166-.025.22zM77.189 102.019c.098.056.215.08.26.056.047-.026.139-.078.205-.118.066-.039.041-.117-.057-.174s-.271-.051-.383.015-.122.164-.025.221zM78.014 101.544c.1.057.217.082.262.055.045-.025.137-.077.203-.116.068-.039.043-.116-.055-.175a.426.426 0 0 0-.383.016c-.113.065-.125.163-.027.22zM78.84 101.071c.098.056.215.08.26.055l.205-.117c.066-.04.041-.117-.057-.175-.098-.056-.271-.049-.383.015-.113.064-.123.164-.025.222zM79.664 100.597c.098.057.217.082.262.055l.205-.116c.064-.039.041-.118-.059-.175-.098-.057-.27-.05-.383.014-.111.064-.123.165-.025.222zM77.41 103.112c.1.059.215.082.262.057.045-.027.137-.079.203-.119.068-.037.043-.116-.057-.173s-.27-.049-.383.015c-.113.064-.123.164-.025.22zM78.234 102.638c.1.057.217.082.262.057s.137-.079.203-.118c.068-.037.043-.117-.055-.173a.423.423 0 0 0-.383.015c-.113.062-.122.162-.027.219zM79.061 102.165c.098.055.215.082.262.055l.203-.117c.066-.039.041-.117-.057-.174-.098-.056-.27-.049-.383.016-.111.064-.123.163-.025.22zM79.885 101.69c.1.057.217.082.262.056.045-.024.137-.08.203-.118.068-.037.041-.116-.057-.173-.098-.058-.27-.05-.381.015-.113.064-.125.164-.027.22zM80.711 101.216c.098.057.215.081.26.057l.205-.119c.066-.037.041-.116-.057-.173a.42.42 0 0 0-.383.016c-.113.063-.123.165-.025.219z"/></g></g></g><g><path fill="#702D0F" d="m71.207 95.047-.367-.217-.006-18.482.373.213v18.486"/><path fill="#8E2D06" d="m71.201 76.562-.367-.21 8.771-5.065.366.212z"/><path fill="#D33218" d="M79.977 71.499v18.485l-8.772 5.063V76.562z"/><path fill="#D33218" d="M71.205 95.047V76.562l8.772-5.063"/><path fill="#702D0F" d="M79.486 73.299v16.42l-7.791 4.498v-16.42z"/><path fill="#8E2D06" d="M79.248 89.619V73.438l-7.553 4.359v16.182z"/></g></svg>